<mxfile host="app.diagrams.net" agent="Mozilla/5.0 (Windows NT 10.0; Win64; x64) AppleWebKit/537.36 (KHTML, like Gecko) Chrome/129.0.0.0 Safari/537.36" version="24.7.17">
  <diagram name="StrÃ¡nka-1" id="CAoNn_qPmIlFXC84ZMjt">
    <mxGraphModel dx="819" dy="467" grid="1" gridSize="10" guides="1" tooltips="1" connect="1" arrows="1" fold="1" page="1" pageScale="1" pageWidth="827" pageHeight="1169" math="0" shadow="0">
      <root>
        <mxCell id="0" />
        <mxCell id="1" parent="0" />
        <mxCell id="KslFYSPMrBS0eJ-jhUQJ-5" value="Animal" style="rounded=0;whiteSpace=wrap;html=1;rotation=0;" parent="1" vertex="1">
          <mxGeometry x="280" y="90" width="120" height="60" as="geometry" />
        </mxCell>
        <mxCell id="KslFYSPMrBS0eJ-jhUQJ-6" value="Keeper" style="rounded=0;whiteSpace=wrap;html=1;" parent="1" vertex="1">
          <mxGeometry x="40" y="90" width="120" height="60" as="geometry" />
        </mxCell>
        <mxCell id="KslFYSPMrBS0eJ-jhUQJ-7" value="paddock" style="rounded=0;whiteSpace=wrap;html=1;" parent="1" vertex="1">
          <mxGeometry x="280" y="270" width="120" height="60" as="geometry" />
        </mxCell>
        <mxCell id="KslFYSPMrBS0eJ-jhUQJ-8" value="pavilion" style="rounded=0;whiteSpace=wrap;html=1;" parent="1" vertex="1">
          <mxGeometry x="520" y="270" width="120" height="60" as="geometry" />
        </mxCell>
        <mxCell id="KslFYSPMrBS0eJ-jhUQJ-9" value="Food" style="rounded=0;whiteSpace=wrap;html=1;" parent="1" vertex="1">
          <mxGeometry x="520" y="90" width="120" height="60" as="geometry" />
        </mxCell>
        <mxCell id="KslFYSPMrBS0eJ-jhUQJ-11" style="edgeStyle=orthogonalEdgeStyle;rounded=0;orthogonalLoop=1;jettySize=auto;html=1;exitX=1;exitY=0.5;exitDx=0;exitDy=0;entryX=0;entryY=0.5;entryDx=0;entryDy=0;endArrow=none;endFill=0;" parent="1" source="KslFYSPMrBS0eJ-jhUQJ-10" target="KslFYSPMrBS0eJ-jhUQJ-5" edge="1">
          <mxGeometry relative="1" as="geometry" />
        </mxCell>
        <mxCell id="KslFYSPMrBS0eJ-jhUQJ-12" style="edgeStyle=orthogonalEdgeStyle;rounded=0;orthogonalLoop=1;jettySize=auto;html=1;exitX=0;exitY=0.5;exitDx=0;exitDy=0;entryX=1;entryY=0.5;entryDx=0;entryDy=0;strokeColor=default;endArrow=none;endFill=0;" parent="1" source="KslFYSPMrBS0eJ-jhUQJ-10" target="KslFYSPMrBS0eJ-jhUQJ-6" edge="1">
          <mxGeometry relative="1" as="geometry" />
        </mxCell>
        <mxCell id="KslFYSPMrBS0eJ-jhUQJ-10" value="keeps" style="rhombus;whiteSpace=wrap;html=1;" parent="1" vertex="1">
          <mxGeometry x="180" y="80" width="80" height="80" as="geometry" />
        </mxCell>
        <mxCell id="KslFYSPMrBS0eJ-jhUQJ-14" style="edgeStyle=orthogonalEdgeStyle;rounded=0;orthogonalLoop=1;jettySize=auto;html=1;exitX=0;exitY=0.5;exitDx=0;exitDy=0;endArrow=none;endFill=0;" parent="1" source="KslFYSPMrBS0eJ-jhUQJ-13" target="KslFYSPMrBS0eJ-jhUQJ-5" edge="1">
          <mxGeometry relative="1" as="geometry" />
        </mxCell>
        <mxCell id="KslFYSPMrBS0eJ-jhUQJ-15" style="edgeStyle=orthogonalEdgeStyle;rounded=0;orthogonalLoop=1;jettySize=auto;html=1;exitX=1;exitY=0.5;exitDx=0;exitDy=0;entryX=0;entryY=0.5;entryDx=0;entryDy=0;endArrow=none;endFill=0;" parent="1" source="KslFYSPMrBS0eJ-jhUQJ-13" target="KslFYSPMrBS0eJ-jhUQJ-9" edge="1">
          <mxGeometry relative="1" as="geometry" />
        </mxCell>
        <mxCell id="KslFYSPMrBS0eJ-jhUQJ-13" value="&amp;nbsp;eats" style="rhombus;whiteSpace=wrap;html=1;" parent="1" vertex="1">
          <mxGeometry x="420" y="80" width="80" height="80" as="geometry" />
        </mxCell>
        <mxCell id="vpGfPOoJV8wJ9LqZUHD6-2" style="edgeStyle=orthogonalEdgeStyle;rounded=0;orthogonalLoop=1;jettySize=auto;html=1;exitX=0.5;exitY=0;exitDx=0;exitDy=0;entryX=0.5;entryY=1;entryDx=0;entryDy=0;endArrow=none;endFill=0;" edge="1" parent="1" source="vpGfPOoJV8wJ9LqZUHD6-1" target="KslFYSPMrBS0eJ-jhUQJ-5">
          <mxGeometry relative="1" as="geometry" />
        </mxCell>
        <mxCell id="vpGfPOoJV8wJ9LqZUHD6-3" style="edgeStyle=orthogonalEdgeStyle;rounded=0;orthogonalLoop=1;jettySize=auto;html=1;exitX=0.5;exitY=1;exitDx=0;exitDy=0;entryX=0.5;entryY=0;entryDx=0;entryDy=0;endArrow=none;endFill=0;" edge="1" parent="1" source="vpGfPOoJV8wJ9LqZUHD6-1" target="KslFYSPMrBS0eJ-jhUQJ-7">
          <mxGeometry relative="1" as="geometry" />
        </mxCell>
        <mxCell id="vpGfPOoJV8wJ9LqZUHD6-1" value="lives in" style="rhombus;whiteSpace=wrap;html=1;" vertex="1" parent="1">
          <mxGeometry x="300" y="170" width="80" height="80" as="geometry" />
        </mxCell>
        <mxCell id="vpGfPOoJV8wJ9LqZUHD6-5" style="edgeStyle=orthogonalEdgeStyle;rounded=0;orthogonalLoop=1;jettySize=auto;html=1;exitX=0;exitY=0.5;exitDx=0;exitDy=0;entryX=1;entryY=0.5;entryDx=0;entryDy=0;endArrow=none;endFill=0;" edge="1" parent="1" source="vpGfPOoJV8wJ9LqZUHD6-4" target="KslFYSPMrBS0eJ-jhUQJ-7">
          <mxGeometry relative="1" as="geometry" />
        </mxCell>
        <mxCell id="vpGfPOoJV8wJ9LqZUHD6-6" style="edgeStyle=orthogonalEdgeStyle;rounded=0;orthogonalLoop=1;jettySize=auto;html=1;exitX=1;exitY=0.5;exitDx=0;exitDy=0;entryX=0;entryY=0.5;entryDx=0;entryDy=0;endArrow=none;endFill=0;" edge="1" parent="1" source="vpGfPOoJV8wJ9LqZUHD6-4" target="KslFYSPMrBS0eJ-jhUQJ-8">
          <mxGeometry relative="1" as="geometry" />
        </mxCell>
        <mxCell id="vpGfPOoJV8wJ9LqZUHD6-4" value="belongs to" style="rhombus;whiteSpace=wrap;html=1;" vertex="1" parent="1">
          <mxGeometry x="420" y="260" width="80" height="80" as="geometry" />
        </mxCell>
      </root>
    </mxGraphModel>
  </diagram>
</mxfile>
